<svg width="36" height="36" viewBox="0 0 36 36" fill="none" xmlns="http://www.w3.org/2000/svg">
<path d="M1.57497 6.97929C1.43827 6.56837 1.42306 6.12673 1.53116 5.70738C1.63927 5.28803 1.86609 4.90879 2.18442 4.61517C2.50274 4.32155 2.89904 4.12603 3.32574 4.05209C3.75244 3.97814 4.19141 4.02891 4.58997 4.19829L32.2425 15.9298C34.0695 16.7038 34.0695 19.2958 32.2425 20.0698L4.58997 31.8013C2.80572 32.5573 0.965222 30.8563 1.57497 29.0203L4.01622 21.701C4.1585 21.273 4.42616 20.8976 4.78444 20.6236C5.14273 20.3495 5.57511 20.1895 6.02547 20.1643L23.6272 19.1878C23.9423 19.1878 24.2445 19.0626 24.4673 18.8398C24.6901 18.617 24.8152 18.3149 24.8152 17.9998C24.8152 17.6847 24.6901 17.3825 24.4673 17.1597C24.2445 16.937 23.9423 16.8118 23.6272 16.8118L6.02547 15.8353C5.57538 15.8102 5.1432 15.6505 4.78494 15.3769C4.42669 15.1033 4.15887 14.7284 4.01622 14.3008L1.57497 6.97929Z" fill="#2E2F32"/>
</svg>
