<svg width="30" height="36" viewBox="0 0 30 36" fill="none" xmlns="http://www.w3.org/2000/svg">
<path d="M18.6826 7.9375C19.8076 8.21519 20.4959 9.35458 20.2182 10.4796C19.9405 11.6046 18.8011 12.2928 17.6761 12.0151C16.5511 11.7374 15.8629 10.598 16.1406 9.47305C16.4183 8.34806 17.5577 7.65981 18.6826 7.9375ZM11.9749 14.3159C11.8547 14.2862 11.7312 14.333 11.6605 14.4314L10.3662 16.2325C9.97852 16.7702 9.22945 16.8943 8.69169 16.5067C8.15392 16.119 8.02982 15.3699 8.41749 14.8321L9.70818 13.0302C10.354 12.1351 11.476 11.7207 12.55 11.9858L16.0925 12.8602C17.1301 13.1163 17.9519 13.9024 18.2514 14.9266L18.9396 17.2711L21.1823 17.8246C21.8267 17.9837 22.2188 18.6328 22.0598 19.2773C21.9007 19.9217 21.2516 20.3138 20.6072 20.1547L18.3645 19.6011C17.5344 19.3962 16.8786 18.767 16.6369 17.9464L16.4265 17.234L15.0402 19.611L17.5822 21.1114C18.5161 21.6625 18.7536 22.907 18.0895 23.7666L14.8839 27.8962C14.4762 28.4213 13.7234 28.5136 13.2019 28.1068C12.6805 27.7 12.5845 26.9463 12.9914 26.4248L15.7783 22.833L12.5457 20.9227C11.4433 20.272 11.0452 18.8644 11.6449 17.7339L13.2855 14.6394L11.9785 14.3168L11.9749 14.3159ZM10.057 20.8337C10.4073 21.4957 10.9384 22.0671 11.6299 22.4734L11.7884 22.5666L11.3638 23.2073C11.0061 23.7486 10.5045 24.1848 9.92139 24.4658L6.31123 26.1973C5.71544 26.4829 4.99709 26.2322 4.71155 25.6364C4.426 25.0406 4.67671 24.3222 5.2725 24.0367L8.88266 22.3051C9.07974 22.2109 9.24302 22.0658 9.36437 21.8871L10.057 20.8337Z" fill="white"/>
</svg>
