<svg width="40" height="36" viewBox="0 0 40 36" fill="none" xmlns="http://www.w3.org/2000/svg">
<path d="M20 0C20 0 7.628 10.68 0.714 16.464C0.493897 16.6556 0.316577 16.8914 0.193565 17.156C0.0705531 17.4207 0.00460261 17.7082 0 18C0 18.5304 0.210714 19.0391 0.585786 19.4142C0.960859 19.7893 1.46957 20 2 20H6V34C6 34.5304 6.21071 35.0391 6.58579 35.4142C6.96086 35.7893 7.46957 36 8 36H14C14.5304 36 15.0391 35.7893 15.4142 35.4142C15.7893 35.0391 16 34.5304 16 34V26H24V34C24 34.5304 24.2107 35.0391 24.5858 35.4142C24.9609 35.7893 25.4696 36 26 36H32C32.5304 36 33.0391 35.7893 33.4142 35.4142C33.7893 35.0391 34 34.5304 34 34V20H38C38.5304 20 39.0391 19.7893 39.4142 19.4142C39.7893 19.0391 40 18.5304 40 18C39.9972 17.7026 39.9268 17.4098 39.7941 17.1437C39.6614 16.8776 39.4698 16.6451 39.234 16.464C32.368 10.68 20 0 20 0Z" fill="#2E2F32"/>
</svg>
