<svg width="16" height="16" viewBox="0 0 16 16" fill="none" xmlns="http://www.w3.org/2000/svg">
<path d="M7.06334 2.50494C7.38729 1.6386 8.61271 1.6386 8.93666 2.50494L9.74316 4.66179C9.8837 5.03763 10.2353 5.29308 10.6362 5.3106L12.9367 5.41112C13.8607 5.45149 14.2394 6.61694 13.5156 7.19275L11.7135 8.62628C11.3995 8.87608 11.2652 9.2894 11.3724 9.67607L11.9877 11.895C12.2348 12.7863 11.2434 13.5066 10.4721 12.9961L8.55191 11.7253C8.21729 11.5038 7.78271 11.5038 7.44809 11.7253L5.52786 12.9961C4.75656 13.5066 3.76517 12.7863 4.01231 11.895L4.6276 9.67607C4.73482 9.2894 4.60053 8.87608 4.28651 8.62628L2.48445 7.19275C1.76061 6.61694 2.13928 5.45149 3.06333 5.41112L5.36384 5.3106C5.76472 5.29308 6.1163 5.03763 6.25684 4.66179L7.06334 2.50494Z" fill="#F5A623"/>
</svg>
