<svg width="19" height="19" viewBox="0 0 19 19" fill="none" xmlns="http://www.w3.org/2000/svg">
<path d="M17.3564 17.3616L16.2418 13.1974C16.8249 12.1241 17.1603 10.8908 17.1603 9.58017C17.1603 5.39018 13.765 2 9.58017 2C5.39534 2 2 5.39534 2 9.58017C2 13.765 5.39534 17.1603 9.58017 17.1603C10.8908 17.1603 12.1189 16.8301 13.1974 16.2419L17.3616 17.3564L17.3564 17.3616Z" stroke="#D2D2D2" stroke-width="1.2" stroke-linecap="round" stroke-linejoin="round"/>
<path d="M5.94717 10.5814C6.44304 10.5814 6.84503 10.1794 6.84503 9.6835C6.84503 9.18763 6.44304 8.78564 5.94717 8.78564C5.4513 8.78564 5.04932 9.18763 5.04932 9.6835C5.04932 10.1794 5.4513 10.5814 5.94717 10.5814Z" fill="#D2D2D2"/>
<path d="M9.67276 10.5814C10.1686 10.5814 10.5706 10.1794 10.5706 9.6835C10.5706 9.18763 10.1686 8.78564 9.67276 8.78564C9.17689 8.78564 8.7749 9.18763 8.7749 9.6835C8.7749 10.1794 9.17689 10.5814 9.67276 10.5814Z" fill="#D2D2D2"/>
<path d="M13.373 10.5814C13.8688 10.5814 14.2708 10.1794 14.2708 9.6835C14.2708 9.18763 13.8688 8.78564 13.373 8.78564C12.8771 8.78564 12.4751 9.18763 12.4751 9.6835C12.4751 10.1794 12.8771 10.5814 13.373 10.5814Z" fill="#D2D2D2"/>
</svg>
